<?xml version="1.0" encoding="UTF-8" standalone="no"?>
<!-- Created with Inkscape (http://www.inkscape.org/) -->

<svg
   xmlns:dc="http://purl.org/dc/elements/1.1/"
   xmlns:cc="http://creativecommons.org/ns#"
   xmlns:rdf="http://www.w3.org/1999/02/22-rdf-syntax-ns#"
   xmlns:svg="http://www.w3.org/2000/svg"
   xmlns="http://www.w3.org/2000/svg"
   xmlns:xlink="http://www.w3.org/1999/xlink"
   xmlns:sodipodi="http://sodipodi.sourceforge.net/DTD/sodipodi-0.dtd"
   xmlns:inkscape="http://www.inkscape.org/namespaces/inkscape"
   width="45.902058"
   height="104.96535"
   id="svg3241"
   version="1.1"
   inkscape:version="0.48.4 r9939"
   sodipodi:docname="New document 1">
  <defs
     id="defs3243">
    <filter
       color-interpolation-filters="sRGB"
       id="filter4899">
      <feGaussianBlur
         id="feGaussianBlur4901"
         stdDeviation="0.1086468" />
    </filter>
    <filter
       color-interpolation-filters="sRGB"
       id="filter4873"
       y="-0.53149003"
       width="2.063"
       height="2.063"
       x="-0.53149003">
      <feGaussianBlur
         id="feGaussianBlur4875"
         stdDeviation="1.5292102" />
    </filter>
    <linearGradient
       inkscape:collect="always"
       xlink:href="#linearGradient4839"
       id="linearGradient3220"
       gradientUnits="userSpaceOnUse"
       x1="36.359001"
       y1="82.599998"
       x2="27.999001"
       y2="74.238998" />
    <linearGradient
       id="linearGradient4839">
      <stop
         id="stop4841"
         stop-color="#404040"
         offset="0" />
      <stop
         id="stop4843"
         stop-opacity=".977"
         offset="1" />
    </linearGradient>
    <radialGradient
       inkscape:collect="always"
       xlink:href="#linearGradient4346"
       id="radialGradient3231"
       gradientUnits="userSpaceOnUse"
       gradientTransform="matrix(1.0247497,8.8198793e-6,-1.3996957e-5,1.5031596,-22.459282,-1415.3221)"
       cx="62.348999"
       cy="989.5"
       r="22.395" />
    <linearGradient
       id="linearGradient4346">
      <stop
         id="stop4348"
         stop-color="#413e3e"
         offset="0" />
      <stop
         id="stop4350"
         stop-color="#373434"
         offset="1" />
    </linearGradient>
    <radialGradient
       inkscape:collect="always"
       xlink:href="#linearGradient4228"
       id="radialGradient3233"
       gradientUnits="userSpaceOnUse"
       gradientTransform="matrix(1.0247497,7.5262371e-6,-2.7456081e-5,3.4476941,-22.445962,-3302.0332)"
       cx="62.348999"
       cy="978.64001"
       r="22.395" />
    <linearGradient
       id="linearGradient4228">
      <stop
         id="stop4230"
         stop-color="#fff"
         offset="0" />
      <stop
         id="stop4232"
         stop-color="#121212"
         offset="1" />
    </linearGradient>
    <radialGradient
       inkscape:collect="always"
       xlink:href="#linearGradient4246"
       id="radialGradient3212"
       gradientUnits="userSpaceOnUse"
       gradientTransform="matrix(1.0044,0.0013122,-5.9088e-4,0.39999,-5.222,571.22)"
       cx="62.386002"
       cy="943.65002"
       r="22.468" />
    <linearGradient
       id="linearGradient4246">
      <stop
         id="stop4256"
         stop-color="#5a5a5a"
         offset="0" />
      <stop
         id="stop4250"
         stop-color="#353232"
         offset="1" />
    </linearGradient>
    <linearGradient
       inkscape:collect="always"
       xlink:href="#linearGradient4268"
       id="linearGradient3214"
       gradientUnits="userSpaceOnUse"
       gradientTransform="matrix(1.0346,0,0,0.81312,-7.9133,178.17)"
       x1="40.179001"
       y1="942.33002"
       x2="87.009003"
       y2="942.33002" />
    <linearGradient
       id="linearGradient4268">
      <stop
         id="stop4270"
         offset="0" />
      <stop
         id="stop4282"
         stop-opacity="0"
         offset=".080423" />
      <stop
         id="stop4284"
         stop-opacity="0"
         offset=".91051" />
      <stop
         id="stop4272"
         offset="1" />
    </linearGradient>
    <radialGradient
       inkscape:collect="always"
       xlink:href="#linearGradient4338"
       id="radialGradient3239"
       gradientUnits="userSpaceOnUse"
       gradientTransform="matrix(1.8733978,-1.3632725,1.7338688,2.2021773,-1892.1503,-2065.249)"
       cx="78.314003"
       cy="1046.3"
       r="19.742001" />
    <linearGradient
       id="linearGradient4338">
      <stop
         id="stop4340"
         stop-color="#8b8b8b"
         offset="0" />
      <stop
         id="stop4342"
         stop-color="#484848"
         offset="1" />
    </linearGradient>
    <radialGradient
       r="19.742001"
       cy="1046.3"
       cx="78.314003"
       gradientTransform="matrix(1.8733978,-1.3632725,1.7338688,2.2021773,-1890.1643,-2053.9065)"
       gradientUnits="userSpaceOnUse"
       id="radialGradient3302"
       xlink:href="#linearGradient4338"
       inkscape:collect="always" />
  </defs>
  <sodipodi:namedview
     id="base"
     pagecolor="#ffffff"
     bordercolor="#666666"
     borderopacity="1.0"
     inkscape:pageopacity="0.0"
     inkscape:pageshadow="2"
     inkscape:zoom="0.7"
     inkscape:cx="356.52246"
     inkscape:cy="-224.26129"
     inkscape:document-units="px"
     inkscape:current-layer="layer1"
     showgrid="false"
     fit-margin-top="0"
     fit-margin-left="0"
     fit-margin-right="0"
     fit-margin-bottom="0"
     inkscape:window-width="721"
     inkscape:window-height="767"
     inkscape:window-x="744"
     inkscape:window-y="92"
     inkscape:window-maximized="0" />
  <metadata
     id="metadata3246">
    <rdf:RDF>
      <cc:Work
         rdf:about="">
        <dc:format>image/svg+xml</dc:format>
        <dc:type
           rdf:resource="http://purl.org/dc/dcmitype/StillImage" />
        <dc:title></dc:title>
      </cc:Work>
    </rdf:RDF>
  </metadata>
  <g
     inkscape:label="Layer 1"
     inkscape:groupmode="layer"
     id="layer1"
     transform="translate(-18.477541,-21.308087)">
    <path
       id="rect4200"
       d="m 26.336958,67.334566 h 30.91768 c 2.49236,0 4.49894,1.3021 4.49894,2.91957 v 52.830334 c 0,1.61747 -2.00648,2.91957 -4.49894,2.91957 h -30.91768 c -2.49236,0 -4.49894,-1.3021 -4.49894,-2.91957 V 70.254136 c 0,-1.61747 2.00648,-2.91957 4.49894,-2.91957 z"
       style="fill:url(#radialGradient3302);stroke:#1d1d1d;stroke-width:0.53878796"
       inkscape:connector-curvature="0" />
    <g
       id="g4318"
       transform="matrix(1.0211957,0,0,1.0439333,-16.626622,-959.71091)">
      <path
         id="rect4214"
         d="m 39.223,939.96 36.068,0.009 c 1.6704,-0.0345 2.6086,0.007 3.1627,0.52959 0.66223,0.6243 0.39491,1.1029 0.52134,2.3947 l 0.1183,4.8911 -44.481,0.7752 0.0278,-5.7495 c 0,-1.0358 0.39495,-1.8168 1.0839,-2.1481 0.73962,-0.47384 2.2204,-0.68632 3.4995,-0.70209 z"
         style="fill:url(#radialGradient3212);stroke:#0b0b0b;stroke-width:0.458;stroke-opacity:0.38299997"
         inkscape:connector-curvature="0" />
      <path
         id="path4260"
         d="m 35.616,940.6 c 0.53956,-0.35393 1.8461,-0.79464 1.8461,-0.79464 h 39.093 c 0,0 1.1624,0.1507 1.8664,0.41759 0.5213,0.19762 0.816,1.2638 0.816,1.2638 l 0.0022,6.6775 -44.538,1.3019 -0.04,-7.4091 c 0,0 0.25594,-0.99911 0.95403,-1.457 z"
         style="fill:url(#linearGradient3214)"
         inkscape:connector-curvature="0" />
    </g>
    <path
       id="rect4210"
       d="m 19.208888,29.565066 c 0.47946,-0.47376 1.4332,-0.39217 1.4332,-0.39217 l 41.91813,0.0667 1.54845,0.002 -2.30746,42.52254 h -40.00959 l -3.05551,-41.10383 c 0,0 -0.0128,-0.61514 0.47356,-1.09571 z"
       style="fill:url(#radialGradient3231);stroke:url(#radialGradient3233);stroke-width:0.51707095"
       inkscape:connector-curvature="0" />
    <g
       id="g47"
       style="fill:#84fa4d;stroke-width:1.45500004"
       transform="matrix(1.085847,0,0,1.0439333,5.0761984,-961.95234)">
      <path
         id="path4847"
         d="m 35.632,78.42 c 0,1.9069 -1.5458,3.4527 -3.4527,3.4527 -1.9069,0 -3.4527,-1.5458 -3.4527,-3.4527 0,-1.9069 1.5458,-3.4527 3.4527,-3.4527 1.9069,0 3.4527,1.5458 3.4527,3.4527 z"
         transform="matrix(0.68718,0,0,0.68718,11.903,954.27)"
         inkscape:connector-curvature="0"
         style="opacity:0.84600004;stroke:#0fff0f;filter:url(#filter4873)" />
      <path
         id="path4813"
         transform="matrix(0.68718,0,0,0.68718,11.903,954.27)"
         d="m 35.632,78.42 c 0,1.9069 -1.5458,3.4527 -3.4527,3.4527 -1.9069,0 -3.4527,-1.5458 -3.4527,-3.4527 0,-1.9069 1.5458,-3.4527 3.4527,-3.4527 1.9069,0 3.4527,1.5458 3.4527,3.4527 z"
         style="stroke:url(#linearGradient3220)"
         inkscape:connector-curvature="0" />
    </g>
    <g
       font-weight="bold"
       font-size="40px"
       id="g51"
       style="font-size:40px;font-weight:bold;font-family:Sans"
       transform="matrix(1.085847,0,0,1.0439333,4.5009284,-962.1441)">
      <text
         id="text4883"
         xml:space="preserve"
         y="1024.5792"
         x="27.593599"
         style="fill:#616161;filter:url(#filter4899)"><tspan
   id="tspan4885"
   font-size="10px"
   y="1024.5792"
   x="27.593599"
   style="font-size:10px;font-family:Umpush">ON</tspan> </text>
      <text
         id="text4879"
         xml:space="preserve"
         y="1024.2513"
         x="27.317385"
         style="fill:#0d0d0d"><tspan
   id="tspan4881"
   font-size="10px"
   y="1024.2513"
   x="27.317385"
   style="font-size:10px;font-family:Umpush">ON</tspan> </text>
    </g>
  </g>
</svg>
